<svg xmlns="http://www.w3.org/2000/svg" viewBox="0 0 1254 1254" fill="none">
  <style>
    .l-fill { fill: #121413; }
    @media (prefers-color-scheme: dark) {
      .l-fill { fill: #ffffff; }
    }
  </style>
  <path
    d="M 262 241 L 259 245 L 259 930 L 271 982 L 295 1023 L 317 1045 L 344 1063 L 371 1074 L 400 1080 L 937 1079 L 939 958 L 934 953 L 445 953 L 421 945 L 403 930 L 394 915 L 389 896 L 389 247 L 387 242 L 381 239 Z"
    class="l-fill"
    fill-rule="evenodd"
  />
  <path
    d="M 989 201 L 983 197 L 976 197 L 811 276 L 810 281 L 861 312 L 863 314 L 862 319 L 813 393 L 770 447 L 716 504 L 668 546 L 606 590 L 558 618 L 488 651 L 439 669 L 400 680 L 399 682 L 437 682 L 458 680 L 519 670 L 584 652 L 641 629 L 682 608 L 714 589 L 759 558 L 802 523 L 853 474 L 880 444 L 905 413 L 938 366 L 983 398 L 988 399 L 990 397 Z"
    fill="#0e7a6f"
  />
  <path
    d="M 913 500 L 904 502 L 863 544 L 821 581 L 796 599 L 790 608 L 790 908 L 792 913 L 800 918 L 912 918 L 917 916 L 922 910 L 922 508 L 916 501 Z"
    fill="#0e7a6f"
  />
  <path
    d="M 722 653 L 714 653 L 686 669 L 650 685 L 606 699 L 600 707 L 600 910 L 609 918 L 722 918 L 727 916 L 731 911 L 732 664 L 730 659 Z"
    fill="#0e7a6f"
  />
  <path
    d="M 548 731 L 538 730 L 485 742 L 434 747 L 426 753 L 424 760 L 425 910 L 429 916 L 434 918 L 546 918 L 553 913 L 555 909 L 555 740 L 553 735 Z"
    fill="#0e7a6f"
  />
</svg>
