<svg
  xmlns="http://www.w3.org/2000/svg"
  width="243"
  height="139"
  viewBox="76.174 280.388 243.346 139.374"
  fill="none"
  preserveAspectRatio="xMidYMid meet"
>
  <g
    clip-path="url(#clip-ml-symbol)"
    transform="matrix(3.8022868,0,0,3.8022868,76.174083,280.3883)"
  >
    <path
      d="M 52.8971,17.1088 C 52.8195,7.62691 41.0754,3.09961e-6 26.6489,3.09961e-6 H 26.3063 C 21.6362,-0.00190282 17.0075,0.875161 12.6619,2.5854 5.35814,5.50043 0.381255,10.6712 0.0322266,16.5982 c 0,0.1681 0,0.3297 0,0.4913 0,0.1615 0,0.1486 0,0.2197 v 0.0776 c 0,0.0452 0,0.0969 0,0.1422 v 0.7885 c 0,0 0,0.0647 0,0.1034 v 0.1164 c 0,0.1357 0,0.2714 0,0.4007 0,0.1293 0,0.2456 0,0.362 C 0.31662,24.0248 2.87616,28.3101 7.30365,31.4449 12.1189,34.8511 18.6471,36.6157 26.1964,36.6157 h 0.4072 c 7.7562,-0.0647 14.4136,-1.9714 19.2418,-5.5134 4.5891,-3.3739 7.1098,-8.0018 7.0581,-13.0304 z"
      fill="#2d3277"
    />
    <path
      d="m 23.8636,24.4837 c 0.2364,-0.0987 0.4876,-0.1576 0.7433,-0.1745 0.2797,-0.0517 0.5674,-0.0412 0.8427,0.0307 0.2753,0.0719 0.5313,0.2035 0.75,0.3855 0.2187,0.182 0.3947,0.4098 0.5155,0.6674 0.1207,0.2576 0.1833,0.5387 0.1833,0.8232 0,0.2845 -0.0626,0.5655 -0.1833,0.8231 -0.1208,0.2576 -0.2968,0.4854 -0.5155,0.6674 -0.2187,0.182 -0.4747,0.3136 -0.75,0.3855 -0.2753,0.0719 -0.563,0.0824 -0.8427,0.0307 v 0 c -0.4886,0.0038 -0.9596,-0.182 -1.314,-0.5183 -0.3544,-0.3363 -0.5646,-0.7969 -0.5863,-1.285 0,-0.4331 -0.2521,-0.4977 -0.3878,-0.4977 -0.0685,0.0044 -0.1353,0.0227 -0.1964,0.0538 -0.0611,0.0311 -0.1153,0.0744 -0.1591,0.1272 -0.2294,0.246 -0.5435,0.3961 -0.879,0.4201 -0.2093,-6e-4 -0.4162,-0.0446 -0.6076,-0.1293 -0.3266,-0.0866 -0.6104,-0.2893 -0.7983,-0.57 -0.188,-0.2808 -0.2672,-0.6204 -0.2229,-0.9554 0.017,-0.0661 0.0177,-0.1354 0.0019,-0.2018 -0.0158,-0.0665 -0.0475,-0.1281 -0.0924,-0.1795 -0.0601,-0.0536 -0.134,-0.0895 -0.2133,-0.1034 -0.0612,-0.0074 -0.1232,-0.002 -0.1821,0.0158 -0.059,0.0178 -0.1136,0.0476 -0.1605,0.0876 -0.2681,0.2294 -0.5949,0.3794 -0.9437,0.4331 -0.1694,-0.0056 -0.3371,-0.0361 -0.4976,-0.0905 -0.4608,-0.1451 -0.8522,-0.4543 -1.1001,-0.869 -0.2478,-0.4146 -0.3348,-0.9058 -0.2444,-1.3803 0.0193,-0.0667 0.0178,-0.1375 -0.0041,-0.2033 -0.0219,-0.0658 -0.0633,-0.1234 -0.1187,-0.1651 -0.168,-0.1035 -0.3296,0.0517 -0.433,0.1551 -0.1171,0.1149 -0.2589,0.2015 -0.4147,0.253 -0.1557,0.0516 -0.3212,0.0667 -0.4837,0.0443 -0.3889,-0.0279 -0.754,-0.1972 -1.0267,-0.4758 -0.2727,-0.2786 -0.434,-0.6473 -0.4535,-1.0367 -0.0017,-0.1901 0.0341,-0.3787 0.1053,-0.555 0.0712,-0.1763 0.1764,-0.3369 0.3096,-0.4725 0.1333,-0.1357 0.2919,-0.2437 0.4669,-0.3181 0.1751,-0.0743 0.363,-0.1134 0.5531,-0.1151 0.3333,-0.0427 0.6703,0.0421 0.9436,0.2375 0.2734,0.1954 0.4627,0.4869 0.5301,0.816 0,0 0,0.0582 0,0.0905 0,0.0323 0.0388,0.2909 0.1874,0.3361 0.1487,0.0453 0.2715,-0.1034 0.3426,-0.2133 0.0134,-0.0262 0.0309,-0.0502 0.0517,-0.0711 l 0.0453,-0.0581 c 0.1804,-0.2602 0.4292,-0.4654 0.7189,-0.5931 0.2897,-0.1278 0.609,-0.173 0.9228,-0.1308 0.2186,0.0051 0.4358,0.0377 0.6463,0.0969 0.3064,0.1091 0.5687,0.3152 0.7472,0.587 0.1785,0.2719 0.2634,0.5945 0.2417,0.919 -0.0017,0.0949 0.0339,0.1867 0.0992,0.2556 0.0653,0.0689 0.155,0.1094 0.2499,0.1128 v 0 c 0.0584,-0.0043 0.1154,-0.0202 0.1675,-0.0469 0.0522,-0.0266 0.0985,-0.0634 0.1363,-0.1082 0.1369,-0.169 0.3065,-0.3088 0.4986,-0.4109 0.1921,-0.1022 0.4028,-0.1647 0.6195,-0.1837 0.2833,0.0023 0.5629,0.064 0.8209,0.1809 1.3896,0.5817 0.7627,2.3592 0.7562,2.3786 -0.084,0.2068 -0.2197,0.5559 0.0711,0.7433 l 0.0582,0.0323 h 0.1163 c 0.107,-0.0087 0.2118,-0.0349 0.3103,-0.0776 z"
      fill="#ffffff"
    />
    <path
      d="M 51.4621,15.06 C 47.7504,15.926 44.1279,17.1378 40.6422,18.6795 38.1409,16.5336 32.356,11.5697 30.7919,10.4386 30.165,9.92301 29.4546,9.51858 28.6912,9.24282 28.3504,9.13598 27.9948,9.08363 27.6377,9.08769 27.1978,9.10196 26.7623,9.18035 26.345,9.32038 25.2307,9.78798 24.2053,10.4439 23.3136,11.2594 l -0.0582,0.0453 c -0.8855,0.7174 -1.7968,1.4543 -2.469,1.6094 -0.2986,0.0715 -0.6044,0.1084 -0.9114,0.1099 v 0 c -0.5761,0.0445 -1.1485,-0.1233 -1.6094,-0.4719 0.0183,-0.0399 0.0422,-0.0769 0.0711,-0.1099 l 2.1782,-2.3914 c 1.687,-1.71287 3.277,-3.32874 6.9612,-3.44509 h 0.181 c 1.6796,0.04714 3.3335,0.42492 4.867,1.11172 2.1191,1.02957 4.4436,1.56651 6.7996,1.57064 2.5238,-0.05957 5.0047,-0.666 7.2714,-1.77746 2.5078,2.16526 4.253,4.73769 4.867,7.54939 z"
      fill="#ffffff"
    />
    <path
      d="m 26.3193,1.17643 h 0.3296 c 3.483,-0.01013 6.9505,0.46409 10.3028,1.40904 l 0.2198,0.06463 0.4524,0.1422 c 2.7604,0.84797 5.3678,2.13095 7.7239,3.80053 -1.9156,0.85916 -3.9834,1.32721 -6.0822,1.37672 h -0.084 C 37.0569,7.95508 34.9626,7.46245 33.0542,6.5282 31.3588,5.77061 29.5325,5.34916 27.6766,5.28721 H 27.3922 C 25.1439,5.27298 22.9643,6.06139 21.2454,7.51065 20.21,7.57806 19.1872,7.77566 18.2011,8.09882 17.527,8.3311 16.8249,8.4724 16.1134,8.51895 H 15.3895 15.2667 C 12.7194,8.09314 10.2178,7.42878 7.79492,6.53466 12.565,3.15425 19.287,1.21521 26.3193,1.17643 Z"
      fill="#ffd100"
    />
    <path
      d="M 6.59885,7.43945 C 9.94693,8.77739 13.825,9.72753 15.0014,9.79216 h 0.2585 c 0.2715,0 0.5494,0 0.8273,0.03232 0.8385,-0.04509 1.6669,-0.20382 2.4626,-0.47184 0.3297,-0.09695 0.6464,-0.18744 0.976,-0.27147 l -0.0452,0.05171 -2.2105,2.43032 c -0.1905,0.1757 -0.3238,0.4046 -0.3826,0.657 -0.0588,0.2524 -0.0404,0.5167 0.0529,0.7585 0.1397,0.2978 0.3646,0.5475 0.6464,0.7174 0.7515,0.4256 1.6058,0.6358 2.469,0.6076 0.3306,7e-4 0.6602,-0.0361 0.9825,-0.1099 0.963,-0.2262 1.939,-1.0212 3.0055,-1.8744 0.8385,-0.7388 1.7985,-1.327 2.8375,-1.7387 0.2511,-0.0668 0.5093,-0.1037 0.7691,-0.1099 h 0.1939 c 0.7909,0.1274 1.53,0.4746 2.133,1.0019 1.7516,1.2927 9.2363,7.7562 10.1024,8.4671 0.1427,0.1353 0.2555,0.2989 0.3312,0.4803 0.0757,0.1815 0.1126,0.3767 0.1083,0.5733 -0.0146,0.1873 -0.0739,0.3683 -0.1728,0.528 -0.099,0.1597 -0.2348,0.2933 -0.396,0.3898 -0.2886,0.1962 -0.6271,0.3061 -0.9759,0.3167 -0.2919,-5e-4 -0.5781,-0.081 -0.8274,-0.2327 l -0.2068,-0.181 c -0.6916,-0.6463 -2.7922,-2.5013 -3.6583,-3.2317 -0.1532,-0.1666 -0.3628,-0.2703 -0.5882,-0.2909 -0.0647,-7e-4 -0.1287,0.0135 -0.187,0.0415 -0.0583,0.028 -0.1093,0.0691 -0.1491,0.1201 -0.1939,0.2456 -0.0905,0.5882 0.2521,0.8726 l 3.2834,3.2317 c 0.2121,0.2046 0.3526,0.472 0.4007,0.7627 0.0122,0.2465 -0.0465,0.4913 -0.1691,0.7055 -0.1225,0.2141 -0.3038,0.3888 -0.5224,0.5032 -0.3093,0.2246 -0.6781,0.3528 -1.0601,0.3684 -0.2838,2e-4 -0.5618,-0.0805 -0.8014,-0.2327 L 34.2367,24.1799 C 33.39,23.359 32.511,22.5123 31.8646,21.9823 31.7081,21.8249 31.5032,21.7247 31.2829,21.6979 v 0 c -0.061,-0.0012 -0.1214,0.0109 -0.1772,0.0355 -0.0559,0.0246 -0.1056,0.061 -0.146,0.1067 -0.0905,0.1034 -0.2068,0.3361 0.0517,0.6463 0.0533,0.069 0.1116,0.1338 0.1745,0.194 l 2.3915,2.6435 c 0.1167,0.124 0.1864,0.2849 0.197,0.4549 0.0106,0.1699 -0.0385,0.3383 -0.1388,0.4759 l -0.0711,0.0969 c -0.0711,0.0776 -0.1422,0.1422 -0.2068,0.2004 -0.3037,0.2268 -0.6747,0.3451 -1.0536,0.3361 -0.0966,0.0103 -0.1941,0.0103 -0.2908,0 -0.2715,-0.0453 -0.3491,-0.1099 -0.3749,-0.1422 L 31.5608,26.6683 C 30.8827,25.9597 30.1663,25.2887 29.415,24.6582 29.2667,24.505 29.0706,24.407 28.8591,24.3802 v 0 c -0.0626,0.002 -0.1242,0.0168 -0.1809,0.0435 -0.0567,0.0267 -0.1073,0.0647 -0.1487,0.1117 -0.2004,0.2197 -0.1099,0.5494 0.2262,0.8661 l 1.8033,2.0037 c -0.0452,0.0711 -0.2456,0.2908 -0.9372,0.3813 -0.0882,0.0064 -0.1768,0.0064 -0.265,0 -0.6148,-0.0339 -1.2148,-0.2016 -1.7581,-0.4912 0.1552,-0.384 0.2343,-0.7945 0.2327,-1.2087 -0.0084,-0.8328 -0.3425,-1.6293 -0.9308,-2.2188 -0.5884,-0.5895 -1.3841,-0.9253 -2.2169,-0.9354 0.0345,-0.5665 -0.1065,-1.1298 -0.4037,-1.6133 -0.2973,-0.4834 -0.7364,-0.8635 -1.2574,-1.0884 -0.4083,-0.1772 -0.8477,-0.2716 -1.2927,-0.2779 -0.2877,-7e-4 -0.5737,0.0451 -0.8467,0.1357 -0.34,-0.571 -0.8784,-0.9967 -1.5125,-1.1957 -0.364,-0.1338 -0.75,-0.1974 -1.1376,-0.1875 -0.5889,-0.0031 -1.1652,0.1702 -1.6546,0.4977 -0.2519,-0.2798 -0.56,-0.5033 -0.9041,-0.6559 -0.3442,-0.1525 -0.7167,-0.2308 -1.0931,-0.2296 v 0 c -0.6709,0.0029 -1.3164,0.2565 -1.8098,0.711 C 12.0023,18.4855 9.42986,16.986 2.97284,15.577 2.68198,15.5123 2.04856,15.3378 1.51855,15.1892 2.06149,12.3711 3.83248,9.69521 6.59885,7.43945 Z"
      fill="#ffffff"
    />
    <path
      d="m 51.6818,18.1496 c 0,0.2111 -0.0258,0.4266 -0.0775,0.6463 -0.5688,3.6648 -3.0573,7.1099 -7.1616,9.7534 -4.7506,3.096 -11.0913,4.8347 -17.8457,4.8929 h -0.3425 c -13.7866,0 -25.00078,-7.1098 -25.07188,-15.9325 0,-0.2779 0,-0.5882 0.03878,-0.9307 l 1.40258,0.3231 c 6.36007,1.3574 8.73862,2.7923 9.33322,3.2318 -0.1063,0.2964 -0.1588,0.6094 -0.1551,0.9242 0.0051,0.7184 0.2941,1.4055 0.8038,1.9117 0.5098,0.5061 1.199,0.7901 1.9174,0.7901 0.1226,0.0096 0.2458,0.0096 0.3684,0 0.1284,0.5019 0.3792,0.9641 0.73,1.3454 0.3508,0.3812 0.7906,0.6696 1.2801,0.8392 0.4643,0.1832 0.9716,0.2281 1.4608,0.1293 0.3378,0.6727 0.9244,1.1873 1.6352,1.4349 0.3461,0.1355 0.7143,0.2056 1.0859,0.2068 0.2202,-0.0146 0.4375,-0.0581 0.6463,-0.1292 0.2577,0.5413 0.6633,0.9985 1.1701,1.3188 0.5067,0.3203 1.0938,0.4905 1.6933,0.4909 v 0 c 0.8155,-0.013 1.5959,-0.334 2.1846,-0.8984 0.7786,0.4221 1.6425,0.663 2.5272,0.7045 0.1364,-6e-4 0.2725,-0.0114 0.4072,-0.0323 0.3546,-0.0123 0.7023,-0.1013 1.0192,-0.2609 0.3169,-0.1595 0.5954,-0.3859 0.8165,-0.6634 l 0.0581,-0.084 c 0.2409,0.0614 0.4883,0.094 0.7369,0.097 0.6343,-0.0214 1.2445,-0.2482 1.7387,-0.6464 0.4824,-0.337 0.8375,-0.8265 1.0083,-1.3896 h 0.4201 c 0.6369,-0.0145 1.2552,-0.2169 1.7775,-0.5817 0.3758,-0.22 0.6909,-0.5302 0.9167,-0.9027 0.2257,-0.3724 0.3549,-0.7953 0.376,-1.2303 0.1334,0.0097 0.2673,0.0097 0.4007,0 0.5956,-0.0108 1.175,-0.195 1.6676,-0.53 0.3329,-0.2087 0.6118,-0.4932 0.814,-0.8301 0.2022,-0.337 0.3219,-0.717 0.3494,-1.1089 0.0301,-0.4789 -0.0705,-0.957 -0.2909,-1.3832 3.276,-1.3448 6.6542,-2.4255 10.1025,-3.2318 0,0.2844 0.0517,0.5624 0.0517,0.8532 0,0.2909 0.0258,0.6011 0.0064,0.8726 z"
      fill="#ffd100"
    />
  </g>
  <defs>
    <clipPath id="clip-ml-symbol">
      <rect width="64" height="36.6674" x="0" y="0" />
    </clipPath>
  </defs>
</svg>
